<?xml version="1.0" encoding="UTF-8" standalone="no"?>
<svg
   xmlns:dc="http://purl.org/dc/elements/1.1/"
   xmlns:cc="http://creativecommons.org/ns#"
   xmlns:rdf="http://www.w3.org/1999/02/22-rdf-syntax-ns#"
   xmlns:svg="http://www.w3.org/2000/svg"
   xmlns="http://www.w3.org/2000/svg"
   xmlns:sodipodi="http://sodipodi.sourceforge.net/DTD/sodipodi-0.dtd"
   xmlns:inkscape="http://www.inkscape.org/namespaces/inkscape"
   id="Gradient"
   height="512"
   viewBox="0 0 512 512"
   width="512"
   version="1.1"
   sodipodi:docname="shhh_to.svg"
   inkscape:version="0.92.4 5da689c313, 2019-01-14">
  <metadata
     id="metadata16">
    <rdf:RDF>
      <cc:Work
         rdf:about="">
        <dc:format>image/svg+xml</dc:format>
        <dc:type
           rdf:resource="http://purl.org/dc/dcmitype/StillImage" />
        <dc:title></dc:title>
      </cc:Work>
    </rdf:RDF>
  </metadata>
  <defs
     id="defs14" />
  <sodipodi:namedview
     pagecolor="#ffffff"
     bordercolor="#666666"
     borderopacity="1"
     objecttolerance="10"
     gridtolerance="10"
     guidetolerance="10"
     inkscape:pageopacity="0"
     inkscape:pageshadow="2"
     inkscape:window-width="1920"
     inkscape:window-height="1052"
     id="namedview12"
     showgrid="false"
     inkscape:zoom="1.84375"
     inkscape:cx="246.53626"
     inkscape:cy="270.01157"
     inkscape:window-x="1920"
     inkscape:window-y="28"
     inkscape:window-maximized="0"
     inkscape:current-layer="Gradient" />
  <linearGradient
     id="linear-gradient"
     gradientUnits="userSpaceOnUse"
     x1="256"
     x2="256"
     y1="555.632"
     y2="-80.389">
    <stop
       offset="0"
       stop-color="#12c2e9"
       id="stop2" />
    <stop
       offset=".5"
       stop-color="#c471ed"
       id="stop4" />
    <stop
       offset="1"
       stop-color="#f64f59"
       id="stop6" />
  </linearGradient>
  <path
     d="m256 16c-132.945 0-240 157.555-240 288 0 120.227 89.719 192 240 192s240-71.773 240-192c0-130.445-107.055-288-240-288zm0 464c-140.258 0-224-65.8-224-176 0-123.2 99.922-272 224-272s224 148.8 224 272c0 110.2-83.742 176-224 176zm-88-304a24 24 0 1 0 24 24 24.027 24.027 0 0 0 -24-24zm0 32a8 8 0 1 1 8-8 8.005 8.005 0 0 1 -8 8zm176-32a24 24 0 1 0 24 24 24.027 24.027 0 0 0 -24-24zm0 32a8 8 0 1 1 8-8 8.005 8.005 0 0 1 -8 8zm-152-56a8 8 0 0 1 -8 8h-32a8 8 0 0 1 0-16h32a8 8 0 0 1 8 8zm176 0a8 8 0 0 1 -8 8h-32a8 8 0 0 1 0-16h32a8 8 0 0 1 8 8zm-75.2 86.4-23.472 17.6 23.472 17.6a8 8 0 1 1 -9.594 12.8l-27.206-20.4-27.2 20.4a8 8 0 1 1 -9.594-12.8l23.466-17.6-23.472-17.6a8 8 0 1 1 9.594-12.8l27.206 20.4 27.2-20.4a8 8 0 0 1 9.594 12.8z"
     fill="url(#linear-gradient)"
     id="path9" />
  <path
     style="fill:#ffffff;fill-opacity:1;stroke:#ffffff;stroke-width:13.55932236;stroke-miterlimit:4;stroke-dasharray:none;stroke-opacity:0.01239669"
     d="M 235.55272,479.28981 C 174.49033,476.25158 125.3938,460.21994 89.68202,431.65821 83.225762,426.49459 71.549034,414.89165 66.70092,408.82233 47.801792,385.16263 37.135047,358.33609 33.166129,324.48334 c -1.031766,-8.8004 -0.860931,-34.78007 0.29722,-45.19966 6.004902,-54.02454 27.802545,-108.60871 61.26224,-153.40872 15.881131,-21.26363 35.239141,-40.96399 54.346261,-55.307369 28.58149,-21.455618 60.37041,-34.466183 91.85407,-37.594027 8.19105,-0.813765 24.24089,-0.682301 32.35265,0.265001 27.80652,3.247282 54.26466,13.329183 79.72548,30.379485 14.64026,9.804111 24.86314,18.409581 39.06085,32.880837 22.96646,23.408953 40.11481,47.943603 55.85727,79.916663 18.22424,37.01356 28.08656,71.94095 31.24218,110.64406 0.77582,9.51539 0.30782,32.9671 -0.82724,41.45274 -4.04943,30.27354 -13.55915,54.31964 -30.36663,76.78455 -10.16751,13.5899 -27.04561,28.73933 -43.21119,38.78542 -41.81614,25.98665 -102.1632,38.5433 -169.20657,35.20749 z m -8.96129,-191.63627 c 1.35415,-0.56579 19.39896,-13.7119 28.83142,-21.00443 0.36669,-0.2835 6.02929,3.61763 15.03307,10.35671 9.8367,7.3625 15.04477,10.92409 16.32552,11.16436 5.71845,1.07278 10.78651,-4.86072 9.06359,-10.61133 -0.73711,-2.46024 -2.05255,-3.60902 -15.51894,-13.55269 -5.36949,-3.96487 -9.97122,-7.39343 -10.22607,-7.61902 -0.25485,-0.2256 4.87057,-4.42563 11.38983,-9.3334 6.51925,-4.90777 12.30917,-9.43647 12.86648,-10.06378 1.10296,-1.24149 1.7621,-5.20083 1.22326,-7.34779 -0.54147,-2.15737 -2.96107,-4.61403 -5.20725,-5.28701 -3.93727,-1.17962 -5.15061,-0.53566 -20.12719,10.6822 -8.42821,6.31297 -14.36688,10.41145 -14.75728,10.18453 -0.35932,-0.20886 -6.8526,-5.01507 -14.42951,-10.68047 -12.52956,-9.36859 -14.00735,-10.32294 -16.33044,-10.54616 -5.08236,-0.48835 -8.88163,2.95377 -8.88163,8.04671 0,1.50332 0.38481,3.13797 0.93712,3.98091 0.51542,0.78662 6.40937,5.51372 13.09767,10.50467 6.68831,4.99094 12.17117,9.22672 12.18414,9.41284 0.013,0.18613 -5.46331,4.4317 -12.16951,9.4346 -10.09082,7.52788 -12.38189,9.48621 -13.28814,11.35826 -1.34005,2.76819 -1.35133,3.75026 -0.075,6.52975 1.15083,2.50617 2.38612,3.69435 4.67485,4.49658 2.26229,0.79296 3.28038,0.77291 5.38399,-0.10604 z M 175.13112,223.0402 c 7.56399,-2.10116 14.1095,-9.05347 16.3221,-17.33652 4.27753,-16.01332 -10.52868,-32.24165 -26.99659,-29.58957 -20.0813,3.234 -27.55508,28.01716 -12.60484,41.7978 6.06943,5.59461 14.73136,7.50278 23.27933,5.12829 z m 177.05937,-0.39565 c 6.00915,-2.21722 10.88818,-6.75339 13.74128,-12.77566 1.61737,-3.4139 1.71635,-3.98254 1.71635,-9.86012 0,-5.87758 -0.099,-6.44622 -1.71635,-9.86013 -4.95088,-10.45022 -15.79635,-16.05512 -26.6768,-13.78649 -16.93391,3.53083 -24.83978,22.74288 -15.26136,37.08667 6.11223,9.15313 17.89651,12.99629 28.19688,9.19573 z M 187.29806,159.19521 c 3.39825,-1.73643 4.62125,-3.63829 4.62125,-7.18644 0,-3.13702 -0.96443,-4.94933 -3.7343,-7.01734 -1.44476,-1.07866 -2.15754,-1.11826 -20.13011,-1.11826 -18.05572,0 -18.67971,0.0351 -20.16362,1.13462 -4.82207,3.57291 -5.29992,9.21873 -1.11134,13.13062 0.73512,0.68656 2.03966,1.4588 2.89899,1.71609 0.85933,0.2573 9.13782,0.48879 18.39664,0.51443 16.4349,0.0455 16.89088,0.0177 19.22249,-1.17372 z m 176.72651,-0.1356 c 3.91051,-2.35639 5.18609,-7.54522 2.80283,-11.40142 -2.29518,-3.71367 -2.58901,-3.7662 -22.08906,-3.94841 -16.45755,-0.15379 -17.62908,-0.10013 -19.91773,0.91225 -4.24324,1.87699 -6.04796,6.3398 -4.22583,10.44985 2.28717,5.15901 3.18752,5.35183 24.27368,5.1986 16.26938,-0.11822 17.46863,-0.19403 19.15611,-1.21087 z"
     id="path829"
     inkscape:connector-curvature="0" />
  <path
     style="fill:#ffffff;fill-opacity:1;stroke:#ffffff;stroke-width:13.55932236;stroke-miterlimit:4;stroke-dasharray:none;stroke-opacity:0.01239672"
     d="m 165.07185,207.21895 c -1.26484,-0.46237 -3.27927,-2.45004 -4.11933,-4.06461 -1.61081,-3.09593 -0.6244,-6.67718 2.58239,-9.37551 1.56771,-1.31915 2.09391,-1.45337 4.90139,-1.2503 2.54113,0.18381 3.45509,0.52446 4.75916,1.77384 4.00437,3.83643 3.19781,9.99719 -1.63609,12.49689 -1.5244,0.7883 -4.88453,1.00567 -6.48752,0.41969 z"
     id="path831"
     inkscape:connector-curvature="0" />
  <path
     style="fill:#ffffff;fill-opacity:1;stroke:#ffffff;stroke-width:13.55932236;stroke-miterlimit:4;stroke-dasharray:none;stroke-opacity:0.01239672"
     d="m 339.87784,206.5392 c -4.70597,-2.8694 -4.5097,-10.7813 0.32953,-13.28376 2.05184,-1.06105 5.60759,-1.07948 7.61871,-0.0395 4.84123,2.50349 5.02516,10.37888 0.31045,13.29273 -2.28926,1.41484 -5.96603,1.42842 -8.25869,0.0305 z"
     id="path833"
     inkscape:connector-curvature="0" />
</svg>
