<?xml version="1.0" encoding="UTF-8" standalone="no"?>
<svg
   xmlns:dc="http://purl.org/dc/elements/1.1/"
   xmlns:cc="http://creativecommons.org/ns#"
   xmlns:rdf="http://www.w3.org/1999/02/22-rdf-syntax-ns#"
   xmlns:svg="http://www.w3.org/2000/svg"
   xmlns="http://www.w3.org/2000/svg"
   xmlns:sodipodi="http://sodipodi.sourceforge.net/DTD/sodipodi-0.dtd"
   xmlns:inkscape="http://www.inkscape.org/namespaces/inkscape"
   height="497pt"
   viewBox="0 0 497 497.048"
   width="497pt"
   version="1.1"
   id="svg9"
   sodipodi:docname="speak_2.svg"
   inkscape:version="0.92.4 5da689c313, 2019-01-14">
  <metadata
     id="metadata15">
    <rdf:RDF>
      <cc:Work
         rdf:about="">
        <dc:format>image/svg+xml</dc:format>
        <dc:type
           rdf:resource="http://purl.org/dc/dcmitype/StillImage" />
        <dc:title></dc:title>
      </cc:Work>
    </rdf:RDF>
  </metadata>
  <defs
     id="defs13" />
  <sodipodi:namedview
     pagecolor="#ffffff"
     bordercolor="#666666"
     borderopacity="1"
     objecttolerance="10"
     gridtolerance="10"
     guidetolerance="10"
     inkscape:pageopacity="0"
     inkscape:pageshadow="2"
     inkscape:window-width="1920"
     inkscape:window-height="1052"
     id="namedview11"
     showgrid="false"
     inkscape:zoom="2.0146141"
     inkscape:cx="187.17892"
     inkscape:cy="460.14563"
     inkscape:window-x="1920"
     inkscape:window-y="28"
     inkscape:window-maximized="0"
     inkscape:current-layer="svg9" />
  <linearGradient
     id="a"
     gradientUnits="userSpaceOnUse"
     x1="248.024"
     x2="248.024"
     y1="497.048"
     y2=".0008">
    <stop
       offset="0"
       stop-color="#9f2fff"
       id="stop2" />
    <stop
       offset="1"
       stop-color="#0bb1d3"
       id="stop4" />
  </linearGradient>
  <path
     d="m400.023438 429.535156c0-25.054687-16.863282-47.246094-41.007813-53.960937l-102.992187-28.605469v-24.769531l21.703124 6.511719 11.464844.335937c25.824219 0 46.832032-21.007813 46.832032-46.832031 0-4.765625 1.128906-9.527344 3.257812-13.789063l9.695312-19.402343c10.589844-.496094 19.046876-9.269532 19.046876-19.976563 0-4.292969-1.414063-8.550781-4-12l-2.984376-3.976563c-10.976562-14.628906-17.015624-32.757812-17.015624-51.054687 0-8.390625-2.121094-16.449219-6.0625-23.589844l2.648437-2.648437c17.679687-17.679688 27.414063-41.183594 27.414063-66.191406 0-20.121094-6.648438-40.074219-18.71875-56.171876l-10.089844-13.414062-5.152344 1.289062c-41.816406 10.453126-85.191406 15.757813-128.925781 15.757813h-4.394531c-70.972657 0-128.71875 57.746094-128.71875 128.722656 0 21.824219 5.601562 43.4375 16.550781 63.085938l27.929687 41.511719c8.144532 12.089843 14.609375 25.25 19.222656 39.097656 5.503907 16.511718 8.296876 33.703125 8.296876 51.101562v6.402344l-102.992188 28.605469c-24.144531 6.714843-41.0078125 28.898437-41.0078125 53.960937v67.511719h400.0000005zm-51.785157-206.863281 2.976563 3.96875c.527344.703125.808594 1.535156.808594 2.40625 0 2.210937-1.792969 4-4 4h-8.945313l-14.101563 28.21875c-3.242187 6.460937-4.953124 13.710937-4.953124 20.949219 0 17-13.832032 30.832031-30.832032 30.832031h-7.992187l-78.878907-23.664063-4.59375 15.328126 42.296876 12.6875v31.371093l-40 26.664063-40-26.664063v-8.203125c0-7.589844-.625-15.132812-1.582032-22.621094l2.949219-2.953124c19.753906-19.753907 30.632813-46.015626 30.632813-73.945313v-8h-16c-8.824219 0-16-7.175781-16-16s7.175781-16 16-16h16v-18.382813c0-12.128906 4.167968-24.023437 11.746093-33.496093 10.238281-12.785157 25.496094-20.121094 41.871094-20.121094h49.414063c8.808593 0 17.089843 3.433594 23.3125 9.65625 6.226562 6.226563 9.65625 14.511719 9.65625 23.3125 0 21.738281 7.175781 43.273437 20.214843 60.65625zm-93.039062 140.671875-11.847657 47.398438-29.984374-24.980469 36.039062-24.027344zm-68.527344 22.417969-29.984375 24.980469-11.847656-47.398438 5.792968-1.609375zm-56.894531-144.320313-27.570313-40.9375c-9.277343-16.695312-14.183593-35.625-14.183593-54.734375 0-62.152343 50.570312-112.722656 112.71875-112.722656h4.394531c43.359375 0 86.382812-5.0625 127.664062-14.976563l3.703125 4.945313c10.007813 13.351563 15.519532 29.886719 15.519532 46.570313 0 20.726562-8.070313 40.214843-22.726563 54.878906l-1.351563 1.351562c-9.035156-8.222656-20.601562-12.769531-32.890624-12.769531h-49.414063c-21.265625 0-41.074219 9.519531-54.359375 26.128906-9.839844 12.296875-15.257812 27.734375-15.257812 43.488281v2.382813c-17.648438 0-32 14.351563-32 32 0 17.527344 14.167968 31.808594 31.648437 32-1.625 18.265625-8.824219 35.359375-20.734375 49.335937-1.152344-4.703124-2.488281-9.367187-4.027344-13.976562-5.070312-15.222656-12.191406-29.679688-21.132812-42.964844zm254.246094 239.605469h-368v-51.511719c0-17.894531 12.046874-33.75 29.296874-38.542968l84.105469-23.359376 17.933594 71.71875 52.664063-43.886718 52.664062 43.894531 17.9375-71.71875 84.101562 23.359375c17.25 4.785156 29.296876 20.632812 29.296876 38.535156zm79.191406-311.191406c21.160156 21.152343 32.808594 49.273437 32.808594 79.191406 0 29.921875-11.648438 58.042969-32.808594 79.191406l-11.3125-11.308593c18.136718-18.128907 28.121094-42.242188 28.121094-67.882813s-9.984376-49.75-28.121094-67.878906zm-15.191406 79.191406c0-17.09375-6.65625-33.167969-18.742188-45.253906l11.3125-11.3125c15.101562 15.105469 23.429688 35.199219 23.429688 56.566406s-8.328126 41.464844-23.429688 56.570313l-11.3125-11.3125c12.085938-12.089844 18.742188-28.160157 18.742188-45.257813zm-41.367188 22.632813c6.039062-6.046876 9.367188-14.085938 9.367188-22.632813 0-8.542969-3.328126-16.582031-9.367188-22.632813l11.3125-11.308593c9.0625 9.070312 14.054688 21.117187 14.054688 33.941406s-4.992188 24.875-14.054688 33.945313zm0 0"
     fill="url(#a)"
     id="path7" />
  <path
     style="fill:#ffffff;fill-opacity:1;stroke:#fffdfd;stroke-width:12.40932465;stroke-miterlimit:4;stroke-dasharray:none;stroke-opacity:1"
     d="m 205.50842,392.80562 c -3.28029,-12.95378 -10.51212,-31.82253 -17.46643,-45.57216 -5.99538,-11.8537 -10.7984,-19.49862 -32.34696,-51.48633 -16.6963,-24.7848 -20.35825,-30.54088 -23.21026,-36.48342 -15.39864,-32.085 -18.93699,-67.9394 -10.10151,-102.35935 6.00958,-23.41124 17.85399,-45.29937 34.38133,-63.535743 20.74066,-22.885374 50.4884,-39.948744 79.95235,-45.860854 13.21629,-2.651922 14.98538,-2.776545 50.38186,-3.549129 35.613,-0.777309 61.14028,-2.825607 93.06993,-7.467893 17.90302,-2.602937 44.78261,-7.662032 58.64959,-11.038627 l 4.79313,-1.16712 3.72048,5.007619 c 13.99168,18.832217 20.82966,37.841983 21.55131,59.913242 0.43783,13.390955 -1.05218,23.926775 -5.11655,36.178815 -4.82621,14.54864 -14.06176,29.73088 -23.99072,39.43815 l -2.5145,2.45837 -1.36995,-1.09671 c -8.78293,-7.03116 -17.01027,-11.16302 -28.12641,-14.12538 -3.93486,-1.04861 -4.87775,-1.07462 -45.21762,-1.24746 -28.84201,-0.12357 -42.6133,-0.006 -45.9145,0.3906 -20.9596,2.52071 -39.76905,11.63185 -54.71187,26.50199 -16.44752,16.36752 -26.21168,38.36215 -27.04116,60.91265 l -0.28518,7.75295 -3.53037,0.32468 c -5.10358,0.46937 -9.40915,1.63393 -14.12471,3.82044 -5.46432,2.53368 -9.62193,5.55916 -13.71925,9.98344 -4.20858,4.54442 -7.11843,9.48127 -9.239,15.67487 -1.59655,4.6631 -1.65239,5.08979 -1.67082,12.76631 -0.0218,9.09804 0.52903,11.8564 3.69354,18.49457 3.64475,7.64554 8.14434,12.91932 14.84923,17.40415 6.22927,4.16669 11.85899,6.16196 20.59505,7.29926 l 2.42528,0.31574 -0.32995,3.55012 c -1.35457,14.57466 -7.86015,33.09559 -16.57199,47.17933 -2.27837,3.68324 -9.83627,14.21433 -10.20129,14.21433 -0.0547,0 -0.62259,-2.06615 -1.26208,-4.59145 z"
     id="path829"
     inkscape:connector-curvature="0"
     transform="matrix(0.75007241,0,0,0.75007241,-0.024,0)" />
  <path
     style="fill:#ffffff;fill-opacity:1;stroke:#fffdfd;stroke-width:12.40932465;stroke-miterlimit:4;stroke-dasharray:none;stroke-opacity:1"
     d="m 239.94337,482.49898 -26.30777,-17.59392 -0.33127,-14.27135 c -0.1822,-7.84925 -0.67424,-17.0495 -1.09342,-20.445 l -0.76216,-6.17363 5.3126,-5.49285 c 21.765,-22.5035 34.91625,-50.28486 38.56338,-81.46316 0.43416,-3.71154 0.75076,-10.65816 0.75076,-16.47268 V 310.5318 h -11.80866 c -13.21827,0 -15.83764,-0.40132 -20.38599,-3.12335 -11.81249,-7.06938 -13.72381,-23.67526 -3.80475,-33.05629 1.50367,-1.42211 4.24358,-3.30075 6.08869,-4.17477 l 3.35475,-1.58911 13.27798,-0.1537 13.27798,-0.1537 V 255.2092 c 0,-7.18943 0.23169,-15.38488 0.51487,-18.21211 1.69822,-16.95502 8.74026,-31.89795 20.6404,-43.79809 12.30389,-12.30389 27.54035,-19.30321 44.97083,-20.65868 8.02827,-0.62431 69.80611,-0.61789 75.74662,0.008 14.90451,1.57002 28.29183,11.00316 34.85842,24.56238 2.93097,6.0521 3.90246,10.88323 4.44183,22.0886 0.25624,5.3236 0.70773,11.46621 1.0033,13.65026 3.27842,24.2252 12.28496,46.17478 26.77531,65.25336 4.23497,5.57593 4.69813,6.86246 3.45376,9.59357 -1.07303,2.35503 -2.7642,2.83544 -9.9815,2.83544 h -6.64419 l -10.5066,21.21994 c -13.25387,26.76852 -13.95441,28.88431 -14.99714,45.29404 -0.80432,12.6579 -4.6731,21.26006 -13.11197,29.15421 -8.21536,7.68506 -17.85863,11.052 -31.65411,11.052 h -6.39534 l -52.23574,-15.65454 c -28.72966,-8.61 -52.4803,-15.73745 -52.7792,-15.8388 -0.64489,-0.21867 -6.84202,20.10786 -6.28228,20.60585 0.20509,0.18246 12.54643,3.96533 27.42521,8.40639 14.87878,4.44106 27.33154,8.1802 27.67279,8.30922 0.48315,0.18265 0.6175,4.86433 0.60703,21.15322 l -0.0134,20.91865 -26.09689,17.37305 c -14.35328,9.55518 -26.35326,17.41689 -26.6666,17.47046 -0.31334,0.0536 -12.40821,-7.81987 -26.87748,-17.49651 z"
     id="path831"
     inkscape:connector-curvature="0"
     transform="matrix(0.75007241,0,0,0.75007241,-0.024,0)" />
  <path
     style="fill:#ffffff;fill-opacity:1;stroke:#fffdfd;stroke-width:12.40932465;stroke-miterlimit:4;stroke-dasharray:none;stroke-opacity:1"
     d="m 304.59674,530.82194 c -19.39357,-16.15638 -19.711,-16.45007 -18.61399,-17.22232 0.61383,-0.4321 11.38184,-7.61183 23.92892,-15.95495 l 22.81287,-15.16931 3.61899,1.01395 c 1.99045,0.55768 3.61239,1.12727 3.60432,1.26577 -0.008,0.1385 -3.52612,14.25846 -7.81788,31.37768 l -7.8032,31.12586 z"
     id="path833"
     inkscape:connector-curvature="0"
     transform="matrix(0.75007241,0,0,0.75007241,-0.024,0)" />
  <path
     style="fill:#ffffff;fill-opacity:1;stroke:#fffdfd;stroke-width:12.40932465;stroke-miterlimit:4;stroke-dasharray:none;stroke-opacity:1"
     d="m 201.22028,516.00622 c -4.30034,-17.20508 -7.73348,-31.34605 -7.6292,-31.42439 0.10428,-0.0783 1.75886,-0.5887 3.67685,-1.13413 l 3.48725,-0.99169 23.9131,15.94419 23.9131,15.94418 -16.95637,14.12089 c -9.326,7.76649 -18.22302,15.17885 -19.77115,16.4719 l -2.81479,2.35101 z"
     id="path835"
     inkscape:connector-curvature="0"
     transform="matrix(0.75007241,0,0,0.75007241,-0.024,0)" />
  <path
     style="fill:#ffffff;fill-opacity:1;stroke:#fffdfd;stroke-width:12.40932465;stroke-miterlimit:4;stroke-dasharray:none;stroke-opacity:1"
     d="m 21.904646,602.27502 0.151653,-38.84119 1.144867,-3.97098 c 1.750656,-6.07217 3.754283,-10.4971 7.087666,-15.65281 3.424426,-5.29654 9.531508,-11.65927 14.222464,-14.81784 7.718674,-5.19724 8.509948,-5.45181 70.097894,-22.55248 l 57.82745,-16.05651 11.91975,47.59893 c 6.55586,26.17941 12.09306,47.59634 12.30488,47.59319 0.21181,-0.003 15.98517,-13.00393 35.0519,-28.8906 19.06672,-15.88667 34.7941,-28.90845 34.94973,-28.9373 0.15563,-0.0289 15.94878,13.01456 35.09589,28.98537 19.14711,15.9708 34.95853,28.99517 35.1365,28.94304 0.17797,-0.0521 5.68747,-21.51396 12.24333,-47.69297 l 11.91975,-47.5982 57.76501,16.05421 c 60.7937,16.89595 62.17191,17.33624 69.46075,22.19022 11.76999,7.8382 20.22125,20.86943 22.69488,34.99384 0.59639,3.40535 0.72856,10.81241 0.72856,40.82668 V 641.1162 H 266.73028 21.752994 Z"
     id="path837"
     inkscape:connector-curvature="0"
     transform="matrix(0.75007241,0,0,0.75007241,-0.024,0)" />
</svg>
